<svg viewBox="0 0 1080 1080" fill="none" xmlns="http://www.w3.org/2000/svg">      <defs>  <filter id="filter" x="-20%" y="-20%" width="140%" height="140%" filterUnits="objectBoundingBox" primitiveUnits="userSpaceOnUse" color-interpolation-filters="linearRGB">    <feMorphology operator="dilate" radius="20 20" in="SourceAlpha" result="morphology"/>    <feFlood flood-color="#ffffff" flood-opacity="1" result="flood"/>    <feComposite in="flood" in2="morphology" operator="in" result="composite"/>    <feMerge result="merge">          <feMergeNode in="composite" result="mergeNode"/>      <feMergeNode in="SourceGraphic" result="mergeNode1"/>      </feMerge>  </filter></defs>      <g id="notion-avatar" filter="url(#filter)">        <g id="notion-avatar-face" fill="#ffffff">      <!--?xml version="1.0" encoding="UTF-8"?-->    <title>Face/ 11</title>    <g id="Face/-11" stroke="none" stroke-width="1" fill-rule="evenodd" stroke-linecap="round" stroke-linejoin="round">        <path d="M532,379 C664.54834,379 772,486.45166 772,619 C772,642.160109 783.234546,666.244677 777.453024,688.979248 C763.583554,743.517917 672,879 608,899 C513.514707,928.526654 373.476049,816.010833 320.189513,718.584987 C317.498129,718.859681 314.765451,719 312,719 C267.81722,719 232,683.18278 232,639 C232,599.134956 261.158843,566.080325 299.312086,560.00055 C325.599297,455.979213 419.809919,379 532,379 Z M295.858895,624.545187 L304.141105,655.454813" id="Path" stroke="#000000" stroke-width="24"/>    </g>    </g><g id="notion-avatar-nose">      <g id="Nose/ 12"><path id="Path" fill-rule="evenodd" clip-rule="evenodd" d="M648.516 575C648.516 575 659.222 580.698 667 589C673.643 596.091 676.296 606.295 680 617C683.578 627.342 695.556 636.07 695 644C692.29 682.626 644 684.16 644 684.16C644 684.16 696 684 700 643.855C701.005 633.771 688.451 626.971 684 617C679.168 606.177 677 594 669 588C660.881 581.911 648.516 575 648.516 575Z" fill="black" stroke="black" stroke-width="6" stroke-linecap="round" stroke-linejoin="round"/></g>    </g><g id="notion-avatar-mouth">      <!--?xml version="1.0" encoding="UTF-8"?-->    <title>Mouth/ 1</title>    <g id="Mouth/-1" stroke="none" stroke-width="1" fill="none" fill-rule="evenodd" stroke-linecap="round" stroke-linejoin="round">        <path d="M549,759 C575.12979,773.666667 603.12979,781 633,781 C662.87021,781 682.87021,773.666667 693,759" id="Path" stroke="#000000" stroke-width="16"/>    </g>    </g><g id="notion-avatar-eyes">      <!--?xml version="1.0" encoding="UTF-8"?-->    <title>Eyes/ 0</title>    <g id="Eyes/-0" stroke="none" stroke-width="1" fill="none" fill-rule="evenodd">        <path d="M570,516 C583.254834,516 594,526.745166 594,540 C594,553.254834 583.254834,564 570,564 C556.745166,564 546,553.254834 546,540 C546,526.745166 556.745166,516 570,516 Z M708,516 C721.254834,516 732,526.745166 732,540 C732,553.254834 721.254834,564 708,564 C694.745166,564 684,553.254834 684,540 C684,526.745166 694.745166,516 708,516 Z" id="Combined-Shape" fill="#000000"/>    </g>    </g><g id="notion-avatar-eyebrows">      <!--?xml version="1.0" encoding="UTF-8"?-->    <title>Eyebrows/ 10</title>    <g id="Eyebrows/-10" stroke="none" stroke-width="1" fill="none" fill-rule="evenodd" stroke-linecap="round" stroke-linejoin="round">        <path d="M757,487.2 C757,494.4 735.666667,494.4 717,494.4 C698.333333,494.4 661,498 661,494.4 C661,490.8 694.986112,480 717,480 L720.27013,480.0009 C740.767534,480.018 757,480.36 757,487.2 Z M561,480 C583.013888,480 617,490.8 617,494.4 C617,498 579.666667,494.4 561,494.4 C542.333333,494.4 521,494.4 521,487.2 C521,480.36 537.232466,480.018 557.72987,480.0009 Z" id="Combined-Shape" stroke="#000000" stroke-width="16" fill="#000000"/>    </g>    </g><g id="notion-avatar-glasses">      <!--?xml version="1.0" encoding="UTF-8"?-->    <title>Glasses/ 2</title>    <g id="Glasses/-2" stroke="none" stroke-width="1" fill="none" fill-rule="evenodd" stroke-linecap="round" stroke-linejoin="round">        <path d="M574.189838,502.353993 C586.612079,503.247679 601.018598,506.362134 617.409394,511.697357 C622.107339,513.226543 629.521032,514.112461 639.650474,514.355109 L640.336909,514.337568 C650.115498,514.071859 657.30038,513.191789 661.891553,511.697357 C678.282349,506.362134 692.688868,503.247679 705.11111,502.353993 C722.696433,501.088862 751.030506,503.214809 790.113329,508.731836 L791.300947,508.900056 L791.300947,529.629258 C786.297933,531.828279 783.752241,534.010301 783.663873,536.175322 C781.481852,589.634841 763.639862,606 723.65829,606 C685.15235,606 666.860184,585.095985 650.56058,541.630375 C648.424017,535.932875 644.892754,533.024776 639.966791,532.906078 L639.650474,532.90229 C634.559091,532.90229 630.922389,535.811651 628.740368,541.630375 C612.440763,585.095985 594.148598,606 555.642657,606 C515.661085,606 497.819095,589.634841 495.637074,536.175322 C495.548712,534.010446 493.003357,531.828573 488.00101,529.629702 L488,530 L289,550 L293,541 L487.999,509 L488,508.900056 C527.696939,503.258104 556.426885,501.076083 574.189838,502.353993 Z M564.611618,508.971486 C532.97231,506.789465 518.789172,513.335528 512.243109,520.972603 C505.697045,528.609677 493.695928,595.161324 551.51949,598.434355 C609.343052,601.707387 614.798105,534.06473 611.525073,526.427656 C608.252042,518.790581 596.250925,511.153507 564.611618,508.971486 Z M714.580942,508.971486 C682.941634,511.153507 670.940518,518.790581 667.667486,526.427656 C664.394454,534.06473 669.849507,601.707387 727.673069,598.434355 C785.496631,595.161324 773.495514,528.609677 766.949451,520.972603 C760.403387,513.335528 746.220249,506.789465 714.580942,508.971486 Z" id="Combined-Shape" stroke="#000000" stroke-width="4" fill="#000000"/>    </g>    </g><g id="notion-avatar-hair">      <g id="Hairstyle/ 51"><path id="Path" fill-rule="evenodd" clip-rule="evenodd" d="M382.001 274C429.761 244.346 494.39 241.407 575.889 265.181L577.14 264.65C597.829 255.949 630.441 246.059 677.001 272C747.001 311 754.98 383.101 781.001 387C799.46 389.766 805.56 435.498 822.001 477C828.104 492.404 867.001 502 867.001 502L822.001 521C822.001 521 831.927 531.092 845.001 539C856.33 545.852 876.001 570 876.001 570C876.001 570 833.793 577.748 828.001 590C824.892 596.577 861.406 604.103 872.001 648C886.001 706 839.99 786.03 868.953 803.495C882.072 811.406 916.953 833.495 916.953 833.495C916.953 833.495 864.775 885.051 840.953 878.495C804.135 868.363 756.953 833.495 756.953 833.495C756.953 833.495 768.409 700.557 764.001 625C760.916 572.103 746.184 514.788 732.001 493C697.561 440.091 627.001 387 540.001 387C473.08 387 468.925 425.463 468.925 425.463C465.119 446.727 465.116 469.946 450.001 502C423.775 557.618 331.05 595.505 331.05 624.505C331.05 653.505 340.05 654.505 340.05 670.505C340.05 686.505 328.02 694.862 331.05 716.505C333.07 730.933 344.021 804.095 360.001 825C332.475 852.867 306.808 870.534 283.001 878C259.195 885.466 228.528 885.466 191.001 878C200.307 869.655 206.974 861.989 211.001 855L211.393 854.308C215.33 847.232 219.867 835.462 225.001 819C218.698 825.705 212.365 830.371 206.001 833C199.637 835.628 190.637 837.295 179.001 838L181.003 835.564C186.363 829.017 190.521 823.735 193.477 819.717L194.434 818.408C199.252 811.846 203.628 806.7 201.001 796C198.297 784.981 163.573 686.372 165.05 653.505C166.035 631.593 176.701 599.259 197.05 556.505C193.586 560.378 189.586 563.378 185.05 565.505C180.513 567.631 173.847 569.631 165.05 571.505L166.29 570.4C177.121 560.712 184.708 552.746 189.05 546.505C193.556 540.027 196.222 533.027 197.05 525.505C190.855 527.314 185.855 527.98 182.05 527.505C178.244 527.029 172.578 525.029 165.05 521.505L166.345 520.889C174.864 516.82 181.099 513.358 185.05 510.505C189.198 507.508 194.532 502.508 201.05 495.505L202.221 492.969C221.276 451.815 236.552 423.661 248.05 408.505C280.199 366.126 314.722 340.408 344.05 318.505C360.26 306.398 368.717 282.248 382.001 274Z" fill="black" stroke="black" stroke-width="12" stroke-linecap="round" stroke-linejoin="round"/></g>    </g><g id="notion-avatar-accessories">      <!--?xml version="1.0" encoding="UTF-8"?-->    <title>Accessories/ 5</title>    <g id="Accessories/-5" stroke="none" stroke-width="1" fill="none" fill-rule="evenodd" stroke-linecap="round" stroke-linejoin="round">        <path d="M269,593 C280.045695,593 289,584.045695 289,573 C289,561.954305 280.045695,553 269,553 C257.954305,553 249,561.954305 249,573" id="Path" stroke="#000000" stroke-width="8"/>        <path d="M242,623 C253.045695,623 262,614.045695 262,603 C262,591.954305 253.045695,583 242,583 C230.954305,583 222,591.954305 222,603" id="Path" stroke="#000000" stroke-width="8" transform="translate(242.000000, 603.000000) rotate(-32.000000) translate(-242.000000, -603.000000) "/>    </g>    </g><g id="notion-avatar-details">      <!--?xml version="1.0" encoding="UTF-8"?-->    <title>Details/ 0</title>    <g id="Details/-0" stroke="none" stroke-width="1" fill="none" fill-rule="evenodd"/>    </g><g id="notion-avatar-beard">      <!--?xml version="1.0" encoding="UTF-8"?-->    <title>Beard/ 0</title>    <g id="Beard/-0" stroke="none" stroke-width="1" fill="none" fill-rule="evenodd"/>    </g>      </g>      </svg>